<svg width="168" height="46" viewBox="0 0 168 46" fill="none" xmlns="http://www.w3.org/2000/svg">
<path d="M158.434 21.8309L167.339 45.41C164.714 45.0346 162.09 44.565 159.418 44.1432L154.401 31.1129L149.246 43.0663C146.715 42.6445 144.229 42.5025 141.699 42.1749L150.746 21.5497L142.542 0.409973H150.137L154.73 12.2213L159.652 0.409973H167.339L158.434 21.8309ZM136.543 0.409973H129.652V41.2849C131.902 41.4255 134.246 41.5183 136.543 41.7995V0.409973ZM123.698 40.8154C117.418 40.3936 111.136 40.0196 104.715 39.8776V0.409973H111.745V33.2219C115.777 33.3161 119.808 33.6436 123.698 33.8306V40.8154ZM97.2145 16.3941V23.4253H87.6063V39.4094H80.668V0.409973H100.355V7.44109H87.6063V16.3941H97.2145ZM68.8553 7.44109V39.7848C66.5116 39.7848 64.1215 39.7848 61.8242 39.8776V7.44109H54.5582V0.409973H76.1676V7.44109H68.8553ZM46.9648 23.7992C43.8717 23.7992 40.2148 23.7992 37.5899 23.9412V34.3944C41.715 34.1118 45.84 33.7842 50.0114 33.6436V40.3936L30.5588 41.9415V0.409973H50.0114V7.44109H37.5899V16.9087C40.309 16.9087 44.4804 16.7681 46.9648 16.7681V23.7992ZM8.01171 19.8626V44.4244C5.48101 44.707 3.2301 45.0346 0.839996 45.41V0.409973H7.54353L16.6836 25.9574V0.409973H23.7147V42.5025C21.2304 42.9257 18.6997 43.0663 16.027 43.4402L8.01171 19.8626Z" fill="#E50914"/>
</svg>
